<svg xmlns="http://www.w3.org/2000/svg" xmlns:xlink="http://www.w3.org/1999/xlink" width="50" zoomAndPan="magnify" viewBox="0 0 375 374.999991" height="50" preserveAspectRatio="xMidYMid meet" version="1.0"><defs><g/><clipPath id="ad145f7844"><path d="M 11.722656 210.816406 L 182.804688 210.816406 L 182.804688 221.148438 L 11.722656 221.148438 Z M 11.722656 210.816406 " clip-rule="nonzero"/></clipPath><clipPath id="5d9098826b"><path d="M 194.894531 151.507812 L 348.816406 151.507812 L 348.816406 162.4375 L 194.894531 162.4375 Z M 194.894531 151.507812 " clip-rule="nonzero"/></clipPath></defs><g clip-path="url(#ad145f7844)"><path fill="#000000" d="M 11.722656 210.816406 L 182.808594 210.816406 L 182.808594 221.148438 L 11.722656 221.148438 Z M 11.722656 210.816406 " fill-opacity="1" fill-rule="nonzero"/></g><g clip-path="url(#5d9098826b)"><path fill="#000000" d="M 194.894531 151.507812 L 348.796875 151.507812 L 348.796875 162.4375 L 194.894531 162.4375 Z M 194.894531 151.507812 " fill-opacity="1" fill-rule="nonzero"/></g><g fill="#000000" fill-opacity="1"><g transform="translate(6.209102, 193.758197)"><g><path d="M 5.03125 0 L 5.03125 -41.984375 L 14.578125 -41.984375 L 14.578125 0 Z M 5.03125 0 "/></g></g></g><g fill="#000000" fill-opacity="1"><g transform="translate(38.242503, 193.758197)"><g><path d="M 5.03125 0 L 5.03125 -41.984375 L 13.140625 -41.984375 L 31.671875 -16.4375 L 31.671875 -41.984375 L 41.15625 -41.984375 L 41.15625 0 L 33.046875 0 L 14.515625 -25.734375 L 14.515625 0 Z M 5.03125 0 "/></g></g></g><g fill="#000000" fill-opacity="1"><g transform="translate(96.849428, 193.758197)"><g><path d="M 5.03125 0 L 5.03125 -41.984375 L 31.375 -41.984375 L 31.375 -33.34375 L 14.578125 -33.34375 L 14.578125 -22.859375 L 29.8125 -22.859375 L 29.8125 -14.453125 L 14.578125 -14.453125 L 14.578125 0 Z M 5.03125 0 "/></g></g></g><g fill="#000000" fill-opacity="1"><g transform="translate(143.279325, 193.758197)"><g><path d="M 24.953125 0.84375 C 20.597656 0.84375 16.726562 -0.0820312 13.34375 -1.9375 C 9.96875 -3.800781 7.328125 -6.375 5.421875 -9.65625 C 3.523438 -12.9375 2.578125 -16.71875 2.578125 -21 C 2.578125 -25.269531 3.523438 -29.046875 5.421875 -32.328125 C 7.328125 -35.609375 9.96875 -38.175781 13.34375 -40.03125 C 16.726562 -41.894531 20.597656 -42.828125 24.953125 -42.828125 C 29.347656 -42.828125 33.222656 -41.894531 36.578125 -40.03125 C 39.941406 -38.175781 42.582031 -35.609375 44.5 -32.328125 C 46.425781 -29.046875 47.390625 -25.269531 47.390625 -21 C 47.390625 -16.71875 46.425781 -12.9375 44.5 -9.65625 C 42.582031 -6.375 39.941406 -3.800781 36.578125 -1.9375 C 33.222656 -0.0820312 29.347656 0.84375 24.953125 0.84375 Z M 12.296875 -21 C 12.296875 -18.476562 12.832031 -16.253906 13.90625 -14.328125 C 14.988281 -12.410156 16.476562 -10.910156 18.375 -9.828125 C 20.28125 -8.753906 22.472656 -8.21875 24.953125 -8.21875 C 27.472656 -8.21875 29.679688 -8.753906 31.578125 -9.828125 C 33.484375 -10.910156 34.960938 -12.410156 36.015625 -14.328125 C 37.078125 -16.253906 37.609375 -18.476562 37.609375 -21 C 37.609375 -23.519531 37.078125 -25.738281 36.015625 -27.65625 C 34.960938 -29.570312 33.484375 -31.066406 31.578125 -32.140625 C 29.679688 -33.222656 27.472656 -33.765625 24.953125 -33.765625 C 22.472656 -33.765625 20.28125 -33.222656 18.375 -32.140625 C 16.476562 -31.066406 14.988281 -29.570312 13.90625 -27.65625 C 12.832031 -25.738281 12.296875 -23.519531 12.296875 -21 Z M 12.296875 -21 "/></g></g></g><g fill="#000000" fill-opacity="1"><g transform="translate(201.105181, 217.180666)"><g><path d="M 5.03125 0 L 5.03125 -41.984375 L 13.140625 -41.984375 L 28.078125 -20.21875 L 42.953125 -41.984375 L 50.984375 -41.984375 L 50.984375 0 L 41.515625 0 L 41.515625 -25.25 L 31.3125 -10.375 L 24.71875 -10.375 L 14.515625 -25.3125 L 14.515625 0 Z M 5.03125 0 "/></g></g></g><g fill="#000000" fill-opacity="1"><g transform="translate(269.549693, 217.180666)"><g><path d="M 5.03125 0 L 5.03125 -41.984375 L 14.578125 -41.984375 L 14.578125 0 Z M 5.03125 0 "/></g></g></g><g fill="#000000" fill-opacity="1"><g transform="translate(301.583095, 217.180666)"><g><path d="M 24.296875 0.84375 C 20.054688 0.84375 16.296875 -0.0820312 13.015625 -1.9375 C 9.734375 -3.800781 7.171875 -6.375 5.328125 -9.65625 C 3.492188 -12.9375 2.578125 -16.71875 2.578125 -21 C 2.578125 -25.269531 3.492188 -29.046875 5.328125 -32.328125 C 7.171875 -35.609375 9.722656 -38.175781 12.984375 -40.03125 C 16.242188 -41.894531 19.992188 -42.828125 24.234375 -42.828125 C 27.796875 -42.828125 31.054688 -42.144531 34.015625 -40.78125 C 36.972656 -39.425781 39.460938 -37.507812 41.484375 -35.03125 C 43.503906 -32.550781 44.910156 -29.628906 45.703125 -26.265625 L 35.875 -26.265625 C 35.070312 -28.585938 33.648438 -30.414062 31.609375 -31.75 C 29.566406 -33.09375 27.207031 -33.765625 24.53125 -33.765625 C 22.175781 -33.765625 20.066406 -33.222656 18.203125 -32.140625 C 16.347656 -31.066406 14.898438 -29.570312 13.859375 -27.65625 C 12.816406 -25.738281 12.296875 -23.519531 12.296875 -21 C 12.296875 -18.476562 12.816406 -16.253906 13.859375 -14.328125 C 14.898438 -12.410156 16.335938 -10.910156 18.171875 -9.828125 C 20.015625 -8.753906 22.113281 -8.21875 24.46875 -8.21875 C 27.226562 -8.21875 29.644531 -8.925781 31.71875 -10.34375 C 33.800781 -11.769531 35.285156 -13.679688 36.171875 -16.078125 L 46.015625 -16.078125 C 45.328125 -12.679688 43.960938 -9.710938 41.921875 -7.171875 C 39.890625 -4.628906 37.363281 -2.65625 34.34375 -1.25 C 31.320312 0.144531 27.972656 0.84375 24.296875 0.84375 Z M 24.296875 0.84375 "/></g></g></g></svg>